# xmcd
#
# Track frame offsets:
#	150
#	9853
#	19148
#	26774
#	32428
#	41517
#	53539
#	65542
#	73813
#	79668
#	86430
#	92775
#	109175
#	117896
#	128558
#	144728
#	153749
#	166690
#	176845
#	186331
#	199124
#	204573
#	209125
#	214524
#	221047
#	239446
#
# Disc length: 3247 seconds
#
# Revision: 0
# Processed by: cddbd v1.5.2PL0 Copyright (c) Steve Scherf et al.
# Submitted via: EasyCDDAExtractor 11.1.0.1
#
DISCID=730cad1a
DTITLE=Various Artist - Mountain Music Played On The Autoharp
DYEAR=1962
DGENRE=Country
TTITLE0=Ernest V. Stoneman - Stoney's Waltz
TTITLE1=Neriah and Kenneth Benfield - Sweet Marie
TTITLE2=Kilby Snow - May I Sleep In Your Barn Tonight, Mister?
TTITLE3=Kilby Snow and Wade Ward - She'l Be Coming 'Round The Mountain
TTITLE4=Kilby Snow - Flop-Eared Mule
TTITLE5=Ernest V. Stoneman - Bile Them Cabbage Down
TTITLE6=Ernest V. Stoneman - All I Got's Gone
TTITLE7=Neriah and Kenneth Benfield - Ella's Grave
TTITLE8=Kenneth Benfield - Shotenin' Bread
TTITLE9=Kenneth Benfield - Old Joe Clark
TTITLE10=Neriah Benfield - Waltz
TTITLE11=Kilby Snow - Precious Jewel
TTITLE12=Kilby Snow - Ain't Going To Work Tommorow
TTITLE13=Kilby Snow - Muleskinner Blues
TTITLE14=Neriah and Kenneth Benfield - Weeping Willow Tree
TTITLE15=Kilby Snow - John Henry
TTITLE16=Ernest V. Stoneman - Wreck Of Number Nine
TTITLE17=Kilby Snow - Red River Valley
TTITLE18=Ernest V. Stoneman - The Great Reaping Day
TTITLE19=Ernest V. Stoneman - I'm Alone, All Alone
TTITLE20=Kenneth benfield - Jacob's Ladder
TTITLE21=Kenneth Benfield - Way Down In The Country
TTITLE22=Neriah Benfield - Benfield Hoedown (Idaho Girl)
TTITLE23=Kilby Snow - Wildwood Flower
TTITLE24=Kilby Snow - Tragic Romance
TTITLE25=track artist 26 - data track
EXTD=
EXTT0=
EXTT1=
EXTT2=
EXTT3=
EXTT4=
EXTT5=
EXTT6=
EXTT7=
EXTT8=
EXTT9=
EXTT10=
EXTT11=
EXTT12=
EXTT13=
EXTT14=
EXTT15=
EXTT16=
EXTT17=
EXTT18=
EXTT19=
EXTT20=
EXTT21=
EXTT22=
EXTT23=
EXTT24=
EXTT25=
PLAYORDER=
